<svg width="173" height="30" viewBox="0 0 173 30" fill="none" xmlns="http://www.w3.org/2000/svg">
<path d="M134.876 29.7214C133.059 29.7214 131.41 29.3791 129.929 28.6945C128.448 27.9976 127.272 26.9956 126.401 25.6888C125.529 24.3695 125.094 22.7764 125.094 20.9095C125.094 19.2666 125.417 17.9349 126.065 16.9143C126.712 15.8813 127.577 15.0723 128.66 14.4873C129.742 13.9023 130.937 13.4667 132.244 13.1804C133.563 12.8817 134.889 12.6453 136.221 12.471C137.963 12.247 139.376 12.079 140.458 11.967C141.554 11.8425 142.35 11.6371 142.848 11.3509C143.358 11.0646 143.614 10.5668 143.614 9.85733V9.70798C143.614 7.86595 143.109 6.43465 142.101 5.41406C141.106 4.39348 139.593 3.88319 137.565 3.88319C135.461 3.88319 133.812 4.3437 132.617 5.26471C132.546 5.31975 132.476 5.37502 132.407 5.4305C130.797 6.72747 128.607 7.68238 126.66 6.98707L125.915 6.72091C126.662 4.97845 127.658 3.62182 128.902 2.65102C130.159 1.66778 131.528 0.983243 133.009 0.597414C134.503 0.199138 135.972 0 137.415 0C138.336 0 139.394 0.112015 140.589 0.336044C141.796 0.547628 142.96 0.989466 144.08 1.66156C145.213 2.33365 146.153 3.34801 146.899 4.70464C147.646 6.06126 148.019 7.8784 148.019 10.156V24.6433C148.019 27.0767 146.047 29.0493 143.614 29.0493V25.1661H143.39C143.091 25.7884 142.593 26.4542 141.896 27.1637C141.199 27.8731 140.272 28.4767 139.114 28.9746C137.957 29.4724 136.544 29.7214 134.876 29.7214ZM135.548 25.7635C137.291 25.7635 138.76 25.4212 139.954 24.7367C141.162 24.0521 142.07 23.1685 142.68 22.0857C143.302 21.0028 143.614 19.864 143.614 18.6692V14.6366C143.427 14.8607 143.016 15.066 142.381 15.2527C141.759 15.427 141.037 15.5825 140.216 15.7195C139.407 15.8439 138.616 15.9559 137.845 16.0555C137.086 16.1426 136.469 16.2173 135.997 16.2795C134.852 16.4289 133.781 16.6716 132.785 17.0076C131.802 17.3312 131.006 17.8229 130.396 18.4825C129.798 19.1297 129.5 20.0134 129.5 21.1335C129.5 22.6644 130.066 23.8219 131.199 24.606C132.344 25.3777 133.794 25.7635 135.548 25.7635Z" fill="black"/>
<path d="M122.303 0.373047C123.696 0.373047 124.662 1.76063 124.179 3.06672L115.054 27.7426C114.764 28.5277 114.015 29.0489 113.178 29.0489H111.483C110.646 29.0489 109.898 28.5277 109.607 27.7426L100.482 3.06672C99.9994 1.76063 100.966 0.373047 102.358 0.373047H102.842C103.694 0.373047 104.453 0.913107 104.732 1.7184L112.132 23.083C112.162 23.1675 112.241 23.2241 112.331 23.2241C112.42 23.2241 112.5 23.1675 112.529 23.083L119.93 1.7184C120.209 0.913106 120.967 0.373047 121.82 0.373047H122.303Z" fill="black"/>
<path d="M92.9311 17.3247V2.37305C92.9311 1.26848 93.8266 0.373047 94.9311 0.373047H95.3371C96.4416 0.373047 97.3371 1.26848 97.3371 2.37305V27.0489C97.3371 28.1535 96.4416 29.0489 95.3371 29.0489H94.9311C93.8266 29.0489 92.9311 28.1535 92.9311 27.0489V24.3771C92.9311 24.2765 92.8496 24.1949 92.749 24.1949C92.6779 24.1949 92.6135 24.2363 92.5829 24.3005C91.9094 25.7111 90.8805 26.9143 89.496 27.9101C88.0771 28.9182 86.2849 29.4223 84.1193 29.4223C82.327 29.4223 80.7339 29.0303 79.34 28.2462C77.946 27.4496 76.8508 26.2548 76.0542 24.6617C75.2576 23.0561 74.8594 21.0336 74.8594 18.5942V2.37305C74.8594 1.26848 75.7548 0.373047 76.8594 0.373047H77.2653C78.3699 0.373047 79.2653 1.26848 79.2653 2.37305V18.2955C79.2653 20.3864 79.8503 22.0542 81.0202 23.2988C82.2026 24.5434 83.7086 25.1657 85.5381 25.1657C86.6334 25.1657 87.7473 24.8857 88.8799 24.3256C90.025 23.7655 90.9833 22.9068 91.755 21.7493C92.5391 20.5918 92.9311 19.1169 92.9311 17.3247Z" fill="black"/>
<path d="M70.5397 4.87943C71.1009 5.87409 70.4665 7.05588 69.3676 7.36689L69.1957 7.41554C68.1963 7.69841 67.1598 7.15074 66.5585 6.30376C66.4845 6.1996 66.4073 6.09595 66.3269 5.99281C65.8539 5.35806 65.2067 4.83532 64.3853 4.4246C63.5639 4.01387 62.5122 3.80851 61.2302 3.80851C59.4753 3.80851 58.0129 4.21301 56.843 5.02201C55.6855 5.81856 55.1067 6.83292 55.1067 8.06509C55.1067 9.16035 55.505 10.0254 56.3016 10.6601C57.0981 11.2949 58.3427 11.8238 60.0354 12.247L64.292 13.2925C66.8559 13.9148 68.7663 14.8669 70.0234 16.1488C71.2804 17.4184 71.909 19.055 71.909 21.0588C71.909 22.7017 71.436 24.1704 70.4901 25.4648C69.5567 26.7592 68.2498 27.7798 66.5696 28.5265C64.8894 29.2733 62.9353 29.6467 60.7075 29.6467C57.7826 29.6467 55.3619 29.0119 53.4452 27.7424C52.0427 26.8135 51.0167 25.5714 50.3672 24.0161C49.9532 23.0246 50.6288 21.973 51.6712 21.7124L52.0609 21.6149C53.1268 21.3485 54.1681 22.0228 54.7302 22.9667C55.1263 23.6318 55.6314 24.1782 56.2455 24.606C57.3657 25.3777 58.8281 25.7635 60.6328 25.7635C62.6864 25.7635 64.3168 25.3279 65.5241 24.4566C66.7438 23.573 67.3537 22.515 67.3537 21.2829C67.3537 20.2872 67.0052 19.4533 66.3082 18.7812C65.6112 18.0967 64.5409 17.5864 63.0971 17.2503L58.3178 16.1302C55.6917 15.5079 53.7625 14.5433 52.5304 13.2365C51.3107 11.9172 50.7008 10.2681 50.7008 8.28912C50.7008 6.67112 51.1551 5.23982 52.0637 3.99521C52.9847 2.75059 54.2355 1.77357 55.8162 1.06414C57.4093 0.354714 59.2139 0 61.2302 0C64.0679 0 66.2958 0.622306 67.9138 1.86692C68.9984 2.69485 69.8737 3.69902 70.5397 4.87943Z" fill="black"/>
<path d="M46.7526 4.87943C47.3138 5.87409 46.6794 7.05588 45.5805 7.36689L45.4086 7.41554C44.4092 7.69841 43.3727 7.15074 42.7714 6.30376C42.6974 6.1996 42.6202 6.09595 42.5398 5.99281C42.0668 5.35806 41.4196 4.83532 40.5982 4.4246C39.7767 4.01387 38.7251 3.80851 37.4431 3.80851C35.6882 3.80851 34.2258 4.21301 33.0559 5.02201C31.8984 5.81856 31.3196 6.83292 31.3196 8.06509C31.3196 9.16035 31.7179 10.0254 32.5144 10.6601C33.311 11.2949 34.5556 11.8238 36.2483 12.247L40.5048 13.2925C43.0687 13.9148 44.9792 14.8669 46.2363 16.1488C47.4933 17.4184 48.1219 19.055 48.1219 21.0588C48.1219 22.7017 47.6489 24.1704 46.703 25.4648C45.7696 26.7592 44.4627 27.7798 42.7825 28.5265C41.1023 29.2733 39.1482 29.6467 36.9204 29.6467C33.9955 29.6467 31.5748 29.0119 29.6581 27.7424C28.2556 26.8135 27.2296 25.5714 26.5801 24.0161C26.1661 23.0246 26.8417 21.973 27.8841 21.7124L28.2738 21.6149C29.3397 21.3485 30.381 22.0228 30.9431 22.9667C31.3392 23.6318 31.8443 24.1782 32.4584 24.606C33.5786 25.3777 35.041 25.7635 36.8457 25.7635C38.8993 25.7635 40.5297 25.3279 41.737 24.4566C42.9567 23.573 43.5666 22.515 43.5666 21.2829C43.5666 20.2872 43.2181 19.4533 42.5211 18.7812C41.8241 18.0967 40.7538 17.5864 39.31 17.2503L34.5307 16.1302C31.9046 15.5079 29.9754 14.5433 28.7433 13.2365C27.5236 11.9172 26.9137 10.2681 26.9137 8.28912C26.9137 6.67112 27.368 5.23982 28.2765 3.99521C29.1976 2.75059 30.4484 1.77357 32.029 1.06414C33.6222 0.354714 35.4268 0 37.4431 0C40.2808 0 42.5087 0.622306 44.1267 1.86692C45.2113 2.69485 46.0866 3.69902 46.7526 4.87943Z" fill="black"/>
<path d="M9.78264 29.7214C7.96551 29.7214 6.3164 29.3791 4.83531 28.6945C3.35423 27.9976 2.17807 26.9956 1.30684 25.6888C0.435614 24.3695 0 22.7764 0 20.9095C0 19.2666 0.323599 17.9349 0.970796 16.9143C1.61799 15.8813 2.483 15.0723 3.56581 14.4873C4.64862 13.9023 5.84345 13.4667 7.15029 13.1804C8.46958 12.8817 9.79509 12.6453 11.1268 12.471C12.8693 12.247 14.2819 12.079 15.3647 11.967C16.46 11.8425 17.2565 11.6371 17.7544 11.3509C18.2647 11.0646 18.5198 10.5668 18.5198 9.85733V9.70798C18.5198 7.86595 18.0157 6.43465 17.0076 5.41406C16.0119 4.39348 14.4997 3.88319 12.471 3.88319C10.3676 3.88319 8.7185 4.3437 7.52367 5.26471C7.45227 5.31975 7.38213 5.37502 7.31326 5.4305C5.70341 6.72747 3.51355 7.68238 1.56669 6.98707L0.821443 6.72091C1.56821 4.97845 2.5639 3.62182 3.80851 2.65102C5.06557 1.66778 6.43464 0.983243 7.91572 0.597414C9.40926 0.199138 10.8779 0 12.3216 0C13.2427 0 14.3006 0.112015 15.4954 0.336044C16.7027 0.547628 17.8664 0.989466 18.9865 1.66156C20.1191 2.33365 21.0588 3.34801 21.8056 4.70464C22.5523 6.06126 22.9257 7.8784 22.9257 10.156V24.6433C22.9257 27.0767 20.9531 29.0493 18.5198 29.0493V25.1661H18.2958C17.9971 25.7884 17.4992 26.4542 16.8022 27.1637C16.1053 27.8731 15.178 28.4767 14.0205 28.9746C12.8631 29.4724 11.4504 29.7214 9.78264 29.7214ZM10.4547 25.7635C12.1972 25.7635 13.6658 25.4212 14.8607 24.7367C16.0679 24.0521 16.9765 23.1685 17.5863 22.0857C18.2087 21.0028 18.5198 19.864 18.5198 18.6692V14.6366C18.3331 14.8607 17.9224 15.066 17.2876 15.2527C16.6653 15.427 15.9435 15.5825 15.122 15.7195C14.313 15.8439 13.5227 15.9559 12.751 16.0555C11.9918 16.1426 11.3757 16.2173 10.9028 16.2795C9.75775 16.4289 8.68738 16.6716 7.69169 17.0076C6.70845 17.3312 5.9119 17.8229 5.30204 18.4825C4.70463 19.1297 4.40592 20.0134 4.40592 21.1335C4.40592 22.6644 4.97222 23.8219 6.10482 24.606C7.24986 25.3777 8.69983 25.7635 10.4547 25.7635Z" fill="black"/>
<path d="M158.329 7.64111C158.329 6.71791 158.518 5.80375 158.887 4.95083C159.256 4.09791 159.796 3.32292 160.477 2.67012C161.158 2.01732 161.967 1.49949 162.857 1.1462C163.747 0.792909 164.701 0.611072 165.664 0.611072L165.664 7.64111L158.329 7.64111Z" fill="black"/>
<path d="M166.948 29.0489C166.192 29.0489 165.542 28.7803 165 28.2432C164.465 27.6984 164.197 27.0462 164.197 26.2865C164.197 25.5345 164.465 24.8899 165 24.3528C165.542 23.8157 166.192 23.5471 166.948 23.5471C167.682 23.5471 168.324 23.8157 168.874 24.3528C169.424 24.8899 169.699 25.5345 169.699 26.2865C169.699 26.7929 169.569 27.2572 169.309 27.6792C169.057 28.0936 168.725 28.4273 168.312 28.6806C167.899 28.9261 167.445 29.0489 166.948 29.0489Z" fill="black"/>
<rect x="152.215" y="0.611084" width="4.89045" height="28.7314" rx="2" fill="black"/>
</svg>
